<?xml version="1.0" encoding="utf-8"?>
<!-- Generator: Adobe Illustrator 24.3.0, SVG Export Plug-In . SVG Version: 6.00 Build 0)  -->
<svg version="1.1" id="Layer_1" xmlns="http://www.w3.org/2000/svg" xmlns:xlink="http://www.w3.org/1999/xlink" x="0px" y="0px"
	 viewBox="0 0 64 64" style="enable-background:new 0 0 64 64;" xml:space="preserve">
<style type="text/css">
	.st0{display:none;}
	.st1{display:inline;fill:#838BC5;}
	.st2{fill:#838BC5;}
	.st3{display:none;fill:none;stroke:#000000;stroke-miterlimit:10;}
</style>
<g class="st0">
	<path class="st1" d="M10.83,17.22c0.11,2.04,0.19,4.08,0.25,6.12c0.03,1.02,0.14,2.04,0.05,3.06c-0.08,1.02-0.21,2.04-0.5,3.05
		l-0.1,0c-0.26-1.02-0.35-2.04-0.4-3.06c-0.06-1.02,0.09-2.04,0.15-3.06c0.12-2.04,0.27-4.07,0.45-6.11L10.83,17.22z"/>
</g>
<g class="st0">
	<path class="st1" d="M10.56,17.56c1.09-0.74,2.51-0.73,3.77-0.49c0.64,0.16,1.26,0.35,1.85,0.74c0.59,0.38,1.04,0.99,1.27,1.66
		c0.46,1.34,0.22,2.94-0.83,4c-0.53,0.53-1.29,0.82-1.97,0.83c-0.69,0.03-1.33-0.08-1.95-0.26l0.01-0.1
		c0.64-0.11,1.27-0.17,1.83-0.33c0.57-0.17,1.02-0.43,1.36-0.83c0.66-0.8,1.06-1.99,0.79-3.07c-0.14-0.53-0.44-1.02-0.89-1.37
		c-0.44-0.35-1.03-0.6-1.6-0.78c-1.15-0.35-2.48-0.5-3.59,0.09L10.56,17.56z"/>
</g>
<g class="st0">
	<path class="st1" d="M20.21,17.3c0.1,3.9,0.15,7.79,0.2,11.68l-0.43-0.43l2.57-0.12l0.64-0.02l0.32,0h0.01
		c0.01,0.46-0.01-1.03,0.02,1.04l0,0l-0.01,0l-0.02,0l-0.04,0l-0.08,0l-0.16,0c-0.43,0-0.86,0.01-1.28-0.01l-1.29-0.04l-0.16-0.01
		l-0.08,0l-0.01,0c0.01,0.73-0.02-1-0.01-0.82l0,0l0.01,0l0.02,0l0.04,0l0.32,0.01l0.64,0.04c0.86,0.06,1.71,0.13,2.57,0.25l0,0.1
		c-0.85,0.14-1.71,0.24-2.56,0.32l-0.64,0.06l-0.32,0.02l-0.04,0l-0.02,0l-0.01,0l0,0c0,0.18-0.02-1.55-0.01-0.82l0.01,0l0.08-0.01
		l0.16-0.01l1.28-0.08c0.43-0.03,0.86-0.03,1.28-0.05l0.16,0l0.08,0l0.04,0l0.02,0l0.01,0l0,0c0.03,2.07,0.01,0.57,0.01,1.04
		l-0.01,0l-0.32,0.01l-0.64,0l-2.57-0.05l-0.45-0.01l0.02-0.42c0.17-3.89,0.33-7.78,0.55-11.67L20.21,17.3z"/>
</g>
<g>
	<polygon class="st2" points="35.32,23.23 30.87,25.75 26.42,28.28 26.46,23.16 26.5,18.05 30.91,20.64 	"/>
	<path class="st2" d="M35.37,23.23l-4.41,2.68l-4.39,2.63l-0.44,0.26l-0.01-0.53l-0.14-10.23l-0.01-0.89l0.79,0.45
		c1.48,0.84,2.92,1.76,4.36,2.68c0.78,0.48,1.52,1.02,2.23,1.51L35.37,23.23z M35.27,23.23c-0.83-0.43-1.64-0.8-2.39-1.16
		c-0.75-0.36-1.49-0.69-2.18-1.08c-1.51-0.8-3.01-1.62-4.46-2.5l0.77-0.44l-0.29,10.23l-0.45-0.26l4.51-2.42L35.27,23.23z"/>
</g>
<g class="st0">
	<path class="st1" d="M35.45,18.33c0.8,0.62,1.59,1.27,2.36,1.93c0.38,0.33,0.83,0.61,1.13,1.02c0.3,0.41,0.58,0.85,0.73,1.4
		l-0.07,0.07c-0.55-0.17-0.98-0.46-1.38-0.78c-0.4-0.31-0.66-0.76-0.98-1.15c-0.64-0.78-1.26-1.59-1.86-2.42L35.45,18.33z"/>
</g>
<g class="st0">
	<path class="st1" d="M43.62,18.19c-0.51,0.86-1.05,1.7-1.61,2.52c-0.28,0.41-0.49,0.88-0.86,1.21c-0.37,0.34-0.76,0.66-1.29,0.87
		l-0.08-0.06c0.1-0.56,0.33-1.01,0.59-1.44c0.26-0.43,0.67-0.73,1.02-1.09c0.7-0.71,1.41-1.41,2.15-2.08L43.62,18.19z"/>
</g>
<g class="st0">
	<path class="st1" d="M39.88,22.63c0.16,1.14,0.26,2.28,0.36,3.42c0.04,0.57,0.18,1.14,0.1,1.71c-0.08,0.57-0.2,1.14-0.51,1.7
		l-0.11,0c-0.3-0.57-0.41-1.14-0.48-1.71c-0.08-0.57,0.07-1.14,0.12-1.71c0.11-1.14,0.24-2.27,0.41-3.41L39.88,22.63z"/>
</g>
<path class="st3" d="M40.92,21.48c0,2.66,0.01,5.31,0.01,7.97"/>
<path class="st3" d="M40.93,23.41c0.03-0.24,0.27-0.39,0.48-0.5c0.31-0.16,0.62-0.32,0.93-0.48c0.29-0.15,0.58-0.3,0.9-0.4
	c0.62-0.21,1.28-0.22,1.93-0.24"/>
<rect x="6.59" y="10.42" class="st3" width="51.65" height="24.82"/>
<g class="st0">
	<path class="st1" d="M45.16,18.38c0.17,1.85,0.28,3.69,0.38,5.54c0.05,0.92,0.19,1.85,0.11,2.77c-0.07,0.92-0.19,1.85-0.49,2.77
		h-0.11c-0.3-0.92-0.42-1.85-0.5-2.77c-0.08-0.92,0.06-1.85,0.11-2.77c0.1-1.85,0.22-3.69,0.39-5.54H45.16z"/>
</g>
<g class="st0">
	<path class="st1" d="M44.94,18.8c0.56-0.31,1.14-0.57,1.78-0.73c0.64-0.17,1.33-0.11,1.97,0.07c1.27,0.39,2.45,1.4,2.7,2.89
		c0.12,0.76-0.18,1.55-0.67,2.1c-0.48,0.56-1.19,0.92-1.87,1.05c-0.69,0.13-1.36,0.11-1.99,0.04c-0.31-0.04-0.65-0.07-0.98-0.16
		c-0.33-0.1-0.67-0.29-0.84-0.6l0.08-0.07c0.52,0.34,1.11,0.19,1.74,0.12c0.62-0.08,1.23-0.14,1.76-0.31
		c0.55-0.15,1.01-0.4,1.39-0.76c0.38-0.36,0.62-0.83,0.6-1.34c-0.07-1.06-0.98-2.09-2.07-2.49c-0.55-0.22-1.15-0.34-1.76-0.24
		c-0.61,0.08-1.21,0.27-1.79,0.52L44.94,18.8z"/>
</g>
<g class="st0">
	<path class="st1" d="M48.3,24.04c0.69,0.79,1.36,1.59,2,2.41c0.32,0.41,0.71,0.77,0.94,1.25c0.23,0.47,0.42,0.96,0.48,1.55
		l-0.08,0.05c-0.51-0.28-0.89-0.66-1.23-1.05c-0.35-0.39-0.52-0.9-0.77-1.36c-0.5-0.92-0.97-1.85-1.42-2.79L48.3,24.04z"/>
</g>
</svg>
